<svg width="30" height="31" viewBox="0 0 30 31" fill="none" xmlns="http://www.w3.org/2000/svg">
<path d="M29.9343 16.6402C29.8904 16.5309 28.8327 13.9322 26.4716 11.3167C24.282 8.89129 20.5144 6 15 6C9.48561 6 5.71798 8.89129 3.52841 11.3167C1.16728 13.9322 0.109612 16.5309 0.0656674 16.6402C0.0223492 16.7482 -2.18805e-05 16.8651 1.60585e-08 16.9833C2.19126e-05 17.1015 0.0224363 17.2184 0.0657946 17.3264C0.109615 17.4357 1.16741 20.0339 3.52854 22.6488C5.7181 25.0737 9.48561 27.9643 15 27.9643C20.5144 27.9643 24.2819 25.0737 26.4715 22.6488C28.8326 20.0339 29.8904 17.4357 29.9342 17.3264C29.9776 17.2184 30 17.1015 30 16.9833C30 16.8651 29.9776 16.7482 29.9343 16.6402ZM15 26.2747C11.0113 26.2747 7.52793 24.6674 4.64641 21.4974C3.43824 20.1682 2.41591 18.6467 1.61319 16.9832C2.4159 15.3194 3.43827 13.7975 4.64653 12.4678C7.52793 9.29717 11.0114 7.68956 15 7.68956C18.9886 7.68956 22.4721 9.29718 25.3535 12.4678C26.5617 13.7974 27.584 15.3192 28.3867 16.983C27.5773 18.7007 23.5219 26.2747 15 26.2747ZM15 10.5067C13.8435 10.5067 12.7129 10.8866 11.7513 11.5982C10.7897 12.3099 10.0402 13.3214 9.59765 14.5049C9.15507 15.6883 9.03927 16.9906 9.2649 18.2469C9.49052 19.5033 10.0474 20.6573 10.8652 21.5631C11.683 22.4688 12.7249 23.0857 13.8592 23.3356C14.9935 23.5855 16.1692 23.4572 17.2377 22.967C18.3062 22.4768 19.2195 21.6467 19.862 20.5816C20.5045 19.5165 20.8475 18.2643 20.8475 16.9834C20.8457 15.2663 20.2291 13.62 19.1328 12.4059C18.0366 11.1917 16.5503 10.5087 15 10.5067ZM15 21.7705C14.1452 21.7705 13.3096 21.4897 12.5988 20.9637C11.888 20.4377 11.3341 19.69 11.007 18.8153C10.6798 17.9406 10.5942 16.9781 10.761 16.0495C10.9278 15.1209 11.3394 14.2679 11.9439 13.5984C12.5483 12.9289 13.3184 12.473 14.1568 12.2883C14.9952 12.1036 15.8642 12.1984 16.654 12.5607C17.4437 12.923 18.1187 13.5366 18.5936 14.3238C19.0686 15.111 19.322 16.0366 19.322 16.9834C19.3208 18.2526 18.865 19.4694 18.0547 20.3668C17.2445 21.2642 16.1459 21.7691 15 21.7705Z" fill="#939393"/>
<path d="M1 1L28 30" stroke="#939393" stroke-width="2"/>
</svg>
