<svg width="24" height="24" viewBox="0 0 24 24" fill="none" xmlns="http://www.w3.org/2000/svg">
<path d="M8.5 18H19.385C19.5383 18 19.6793 17.936 19.808 17.808C19.9367 17.68 20.0007 17.5387 20 17.384V14.825H8.5V18ZM4 9.175H7.5V6H4.616C4.462 6 4.32067 6.064 4.192 6.192C4.06333 6.32 3.99933 6.46133 4 6.616V9.175ZM4 13.85H7.5V10.175H4V13.85ZM4.616 18H7.5V14.825H4V17.385C4 17.5383 4.064 17.6793 4.192 17.808C4.32 17.9367 4.461 18.0007 4.615 18M8.5 13.85H20V10.175H8.5V13.85ZM8.5 9.175H20V6.615C20 6.46167 19.936 6.32067 19.808 6.192C19.68 6.06333 19.539 5.99933 19.385 6H8.5V9.175ZM4.616 19C4.15533 19 3.771 18.846 3.463 18.538C3.155 18.23 3.00067 17.8453 3 17.384V6.616C3 6.15533 3.15433 5.771 3.463 5.463C3.77167 5.155 4.15567 5.00067 4.615 5H19.385C19.845 5 20.229 5.15433 20.537 5.463C20.845 5.77167 20.9993 6.156 21 6.616V17.385C21 17.845 20.8457 18.2293 20.537 18.538C20.2283 18.8467 19.8443 19.0007 19.385 19H4.616Z" fill="#808080"/>
<rect x="4" y="6" width="16" height="12" rx="1.05" stroke="black" stroke-width="2"/>
<line x1="5" y1="9.7998" x2="19" y2="9.7998" stroke="black" stroke-width="2"/>
<line x1="5" y1="14" x2="19" y2="14" stroke="black" stroke-width="2"/>
<line x1="8" y1="19" x2="8" y2="5" stroke="black" stroke-width="2"/>
</svg>
