<svg width="48" height="48" viewBox="0 0 48 48" fill="none" xmlns="http://www.w3.org/2000/svg">
<g clip-path="url(#clip0_21_5)">
<path d="M24 12C25.0937 12 26.125 11.8437 27.0937 11.5312C28.0625 11.2188 29.0312 10.875 30 10.5C30.9687 10.125 31.9297 9.78125 32.8828 9.46875C33.8359 9.15625 34.875 9 36 9V12C35.3125 12 34.6562 12.0703 34.0312 12.2109C33.4062 12.3516 32.7969 12.5391 32.2031 12.7734C31.6094 13.0078 31 13.25 30.375 13.5C29.75 13.75 29.1172 13.9922 28.4765 14.2266C27.8359 14.4609 27.1406 14.6406 26.3906 14.7656C25.6406 14.8906 24.8437 14.9687 24 15C23.1406 15 22.3437 14.9297 21.6094 14.7891C20.875 14.6484 20.1797 14.4609 19.5234 14.2266C18.8672 13.9922 18.2422 13.75 17.6484 13.5C17.0547 13.25 16.4453 13.0078 15.8203 12.7734C15.1953 12.5391 14.5781 12.3594 13.9687 12.2344C13.3594 12.1094 12.7031 12.0313 12 12V9C13.0781 9 14.1094 9.15625 15.0937 9.46875C16.0781 9.78125 17.0469 10.125 18 10.5C18.9531 10.875 19.9219 11.2188 20.9062 11.5312C21.8906 11.8437 22.9219 12 24 12ZM48 13.5703C48 16.3359 47.7969 19.1484 47.3906 22.0078C46.9844 24.8672 46.3906 27.7031 45.6094 30.5156C44.8281 33.3281 43.8437 36.0547 42.6562 38.6953C41.4687 41.3359 40.1172 43.8281 38.6015 46.1719C38.2265 46.7344 37.75 47.1797 37.1719 47.5078C36.5937 47.8359 35.9609 48 35.2734 48C34.414 48 33.6406 47.7578 32.9531 47.2734C32.2656 46.7891 31.789 46.1328 31.5234 45.3047L27.3515 32.8359C26.8047 32.8984 26.25 32.9375 25.6875 32.9531C25.125 32.9688 24.5625 32.9844 24 33C23.4375 33 22.875 32.9922 22.3125 32.9766C21.75 32.9609 21.1953 32.9141 20.6484 32.8359L16.4765 45.3047C16.2109 46.1172 15.7344 46.7656 15.0469 47.25C14.3594 47.7344 13.5859 47.9844 12.7265 48C12.039 48 11.4062 47.8359 10.8281 47.5078C10.25 47.1797 9.77342 46.7344 9.39842 46.1719C7.86717 43.8437 6.51561 41.3594 5.34373 38.7188C4.17186 36.0781 3.1953 33.3516 2.41405 30.5391C1.6328 27.7266 1.03123 24.8906 0.609358 22.0312C0.187483 19.1719 -0.0156424 16.3516 -1.74386e-05 13.5703C-1.74386e-05 11.8203 0.265608 10.1328 0.796858 8.50781C1.32811 6.88281 2.10155 5.4375 3.11717 4.17188C4.1328 2.90625 5.38279 1.89844 6.86717 1.14844C8.35154 0.398438 10.0469 0.015625 11.9531 0C13.0625 0 14.1015 0.15625 15.0703 0.46875C16.039 0.78125 17.0078 1.125 17.9765 1.5C18.9453 1.875 19.9062 2.21875 20.8594 2.53125C21.8125 2.84375 22.8594 3 24 3C25.1094 3 26.1484 2.84375 27.1172 2.53125C28.0859 2.21875 29.0547 1.875 30.0234 1.5C30.9922 1.125 31.9531 0.78125 32.9062 0.46875C33.8594 0.15625 34.9062 0 36.0469 0C37.9531 0 39.6484 0.375 41.1328 1.125C42.6172 1.875 43.8672 2.88281 44.8828 4.14844C45.8984 5.41406 46.6719 6.85937 47.2031 8.48438C47.7344 10.1094 48 11.8047 48 13.5703ZM45 13.6172C45 12.1641 44.8047 10.7969 44.414 9.51562C44.0234 8.23437 43.4375 7.10937 42.6562 6.14062C41.875 5.17188 40.8906 4.40625 39.7031 3.84375C38.5156 3.28125 37.1484 3 35.6015 3C34.6953 3 33.8281 3.15625 33 3.46875C32.1719 3.78125 31.2969 4.125 30.375 4.5C29.4531 4.875 28.4844 5.21875 27.4687 5.53125C26.4531 5.84375 25.2969 6 24 6C22.7031 6 21.5469 5.84375 20.5312 5.53125C19.5156 5.21875 18.5469 4.875 17.625 4.5C16.7031 4.125 15.8125 3.78125 14.9531 3.46875C14.0937 3.15625 13.1406 3 12.0937 3C10.5781 3 9.24998 3.29687 8.10936 3.89062C6.96873 4.48438 6.02342 5.27344 5.27342 6.25781C4.52342 7.24219 3.95311 8.36719 3.56248 9.63281C3.17186 10.8984 2.98436 12.2266 2.99998 13.6172C2.99998 15.1484 3.08592 16.7969 3.2578 18.5625C3.42967 20.3281 3.6953 22.1563 4.05467 24.0469C4.41405 25.9375 4.84373 27.8203 5.34373 29.6953C5.84373 31.5703 6.42967 33.4141 7.10154 35.2266C7.77342 37.0391 8.51561 38.7266 9.32811 40.2891C10.1406 41.8516 11.0156 43.2734 11.9531 44.5547C12.1875 44.8516 12.4844 45 12.8437 45C13.0312 45 13.2734 44.7188 13.5703 44.1562C13.8672 43.5938 14.1797 42.8594 14.5078 41.9531C14.8359 41.0469 15.1875 40.0625 15.5625 39C15.9375 37.9375 16.2734 36.8984 16.5703 35.8828C16.8672 34.8672 17.1562 33.9453 17.4375 33.1172C17.7187 32.2891 17.9062 31.6875 18 31.3125C18.125 30.9062 18.3594 30.5547 18.7031 30.2578C19.0469 29.9609 19.4531 29.8047 19.9219 29.7891C20.6094 29.7891 21.289 29.8203 21.9609 29.8828C22.6328 29.9453 23.3125 29.9844 24 30C24.6875 30 25.3672 29.9688 26.039 29.9062C26.7109 29.8437 27.3906 29.8047 28.0781 29.7891C28.5312 29.7891 28.9297 29.9375 29.2734 30.2344C29.6172 30.5313 29.8594 30.8906 30 31.3125C30.125 31.6875 30.3125 32.2891 30.5625 33.1172C30.8125 33.9453 31.0937 34.8594 31.4062 35.8594C31.7187 36.8594 32.0625 37.9062 32.4375 39C32.8125 40.0938 33.1562 41.0781 33.4687 41.9531C33.7812 42.8281 34.1015 43.5547 34.4297 44.1328C34.7578 44.7109 35 45 35.1562 45C35.5156 45 35.8125 44.8516 36.0469 44.5547C36.9844 43.3047 37.8594 41.8828 38.6719 40.2891C39.4844 38.6953 40.2187 37.0078 40.875 35.2266C41.5312 33.4453 42.1172 31.6094 42.6328 29.7188C43.1484 27.8281 43.5781 25.9453 43.9219 24.0703C44.2656 22.1953 44.5312 20.3672 44.7187 18.5859C44.9062 16.8047 45 15.1484 45 13.6172Z" fill="black"/>
</g>
<defs>
<clipPath id="clip0_21_5">
<rect width="48" height="48" fill="white"/>
</clipPath>
</defs>
</svg>
