<svg width="30" height="22" viewBox="0 0 30 22" fill="none" xmlns="http://www.w3.org/2000/svg">
<path d="M29.9343 10.6402C29.8904 10.5309 28.8327 7.93219 26.4716 5.31673C24.282 2.89129 20.5144 0 15 0C9.48561 0 5.71798 2.89129 3.52841 5.31673C1.16728 7.93219 0.109612 10.5309 0.0656674 10.6402C0.0223492 10.7482 -2.18805e-05 10.8651 1.60585e-08 10.9833C2.19126e-05 11.1015 0.0224363 11.2184 0.0657946 11.3264C0.109615 11.4357 1.16741 14.0339 3.52854 16.6488C5.7181 19.0737 9.48561 21.9643 15 21.9643C20.5144 21.9643 24.2819 19.0737 26.4715 16.6488C28.8326 14.0339 29.8904 11.4357 29.9342 11.3264C29.9776 11.2184 30 11.1015 30 10.9833C30 10.8651 29.9776 10.7482 29.9343 10.6402ZM15 20.2747C11.0113 20.2747 7.52793 18.6674 4.64641 15.4974C3.43824 14.1682 2.41591 12.6467 1.61319 10.9832C2.4159 9.31938 3.43827 7.79749 4.64653 6.46785C7.52793 3.29717 11.0114 1.68956 15 1.68956C18.9886 1.68956 22.4721 3.29718 25.3535 6.46785C26.5617 7.79738 27.584 9.31918 28.3867 10.983C27.5773 12.7007 23.5219 20.2747 15 20.2747ZM15 4.50673C13.8435 4.50673 12.7129 4.88658 11.7513 5.59824C10.7897 6.30991 10.0402 7.32142 9.59765 8.50487C9.15507 9.68833 9.03927 10.9906 9.2649 12.2469C9.49052 13.5033 10.0474 14.6573 10.8652 15.5631C11.683 16.4688 12.7249 17.0857 13.8592 17.3356C14.9935 17.5855 16.1692 17.4572 17.2377 16.967C18.3062 16.4768 19.2195 15.6467 19.862 14.5816C20.5045 13.5165 20.8475 12.2643 20.8475 10.9834C20.8457 9.26626 20.2291 7.62004 19.1328 6.40585C18.0366 5.19167 16.5503 4.50868 15 4.50673ZM15 15.7705C14.1452 15.7705 13.3096 15.4897 12.5988 14.9637C11.8881 14.4377 11.3341 13.69 11.007 12.8153C10.6798 11.9406 10.5942 10.9781 10.761 10.0495C10.9278 9.12086 11.3394 8.26788 11.9439 7.5984C12.5483 6.92891 13.3184 6.47298 14.1568 6.28827C14.9952 6.10356 15.8642 6.19836 16.654 6.56069C17.4437 6.92301 18.1187 7.53658 18.5936 8.32382C19.0686 9.11105 19.322 10.0366 19.322 10.9834C19.3208 12.2526 18.865 13.4694 18.0547 14.3668C17.2445 15.2642 16.1459 15.7691 15 15.7705Z" fill="#939393"/>
</svg>
